<?xml version="1.0" encoding="utf-8"?>
<!-- Generator: Adobe Illustrator 17.0.0, SVG Export Plug-In . SVG Version: 6.00 Build 0)  -->
<!DOCTYPE svg PUBLIC "-//W3C//DTD SVG 1.1//EN" "http://www.w3.org/Graphics/SVG/1.1/DTD/svg11.dtd">
<svg version="1.1" id="Layer_1" xmlns="http://www.w3.org/2000/svg" xmlns:xlink="http://www.w3.org/1999/xlink" x="0px" y="0px"
	 width="279.764px" height="210.849px" viewBox="0 0 279.764 210.849" enable-background="new 0 0 279.764 210.849"
	 xml:space="preserve">
<g>
	<g>
		<path fill="#404040" d="M135.92,1.031v105.587h-27.191H70.181h-3.94H33.12H1.446L65.74,56.135v24.978v0.5h0.5h6.94h0.5v-0.5
			v-30.98L135.92,1.031 M136.42,0L73.181,49.89v31.222h-6.94V55.107L0,107.118h33.12h33.12h3.94h38.548h27.691V0L136.42,0z"/>
	</g>
	<g>
		<path fill="#404040" d="M271.393,0.5v73.231H236.64h-1.48l1.177,0.898l41.947,31.989H143.868V0.5H271.393 M271.893,0H143.368
			v107.118h136.395L236.64,74.231h35.253V0L271.893,0z"/>
	</g>
</g>
<g>
	<path fill="#636466" d="M93.623,142.095c-0.126,1.909,0.198,3.709,2.755,3.709c2.971,0,2.827-2.107,2.827-3.889v-8.589h0.792v8.859
		c0,1.512,0.054,4.303-3.529,4.303c-3.475,0-3.637-2.467-3.637-4.394H93.623z"/>
	<path fill="#636466" d="M110.544,133.326l5.077,12.856h-0.846l-1.62-4.123h-6.158l-1.638,4.123h-0.846l5.167-12.856H110.544z
		 M112.902,141.374l-2.755-7.274h-0.036l-2.863,7.274H112.902z"/>
	<path fill="#636466" d="M120.136,133.326h0.99l8.121,11.793h0.036v-11.793h0.792v12.856h-0.936l-8.175-11.884h-0.036v11.884h-0.792
		V133.326z"/>
	<path fill="#636466" d="M144.545,133.326h5.365c2.251,0,4.069,0.829,4.069,3.313c0,1.729-1.044,3.007-2.755,3.295v0.036
		c1.908,0.216,2.377,1.422,2.503,2.755s-0.09,2.773,0.432,3.457h-0.882c-0.486-0.882-0.198-2.359-0.342-3.601
		c-0.162-1.242-0.774-2.25-3.025-2.25h-4.573v5.852h-0.792V133.326z M149.91,139.646c1.873,0,3.277-0.882,3.277-2.953
		c0-1.945-1.549-2.683-3.277-2.683h-4.573v5.636H149.91z"/>
	<path fill="#636466" d="M165.03,146.488c-3.854,0-6.122-2.971-6.122-6.734c0-3.763,2.269-6.734,6.122-6.734
		c3.835,0,6.104,2.971,6.104,6.734C171.133,143.517,168.865,146.488,165.03,146.488z M165.03,145.804
		c3.349,0,5.312-2.755,5.312-6.05s-1.963-6.05-5.312-6.05c-3.367,0-5.329,2.755-5.329,6.05S161.663,145.804,165.03,145.804z"/>
	<path fill="#636466" d="M176.422,133.326h4.213c4.592,0,5.942,3.151,5.942,6.41c0,3.637-1.855,6.446-5.979,6.446h-4.177V133.326z
		 M177.214,145.498h3.457c2.395,0,5.113-1.314,5.113-5.762c0-5.258-3.367-5.726-5.275-5.726h-3.295V145.498z"/>
	<path fill="#636466" d="M23.243,157.326h0.792v12.856h-0.792V157.326z"/>
	<path fill="#636466" d="M29.903,157.326h0.99l8.121,11.793h0.036v-11.793h0.792v12.856h-0.936l-8.175-11.884h-0.036v11.884h-0.792
		V157.326z"/>
	<path fill="#636466" d="M44.32,158.01v-0.684h9.849v0.684h-4.537v12.172h-0.792V158.01H44.32z"/>
	<path fill="#636466" d="M67.381,169.498v0.684h-8.733v-12.856h8.643v0.684h-7.85v5.15h7.382v0.684h-7.382v5.654H67.381z"/>
	<path fill="#636466" d="M72.329,157.326h5.366c2.25,0,4.069,0.829,4.069,3.313c0,1.729-1.044,3.007-2.755,3.295v0.036
		c1.909,0.216,2.376,1.422,2.502,2.755s-0.09,2.773,0.432,3.457h-0.882c-0.486-0.882-0.198-2.359-0.342-3.601
		c-0.162-1.242-0.774-2.25-3.025-2.25h-4.573v5.852h-0.792V157.326z M77.694,163.646c1.873,0,3.277-0.882,3.277-2.953
		c0-1.945-1.548-2.683-3.277-2.683h-4.573v5.636H77.694z"/>
	<path fill="#636466" d="M91.95,157.326l5.077,12.856h-0.846l-1.621-4.123h-6.158l-1.638,4.123h-0.847l5.168-12.856H91.95z
		 M94.308,165.374l-2.755-7.274h-0.036l-2.863,7.274H94.308z"/>
	<path fill="#636466" d="M111.553,161.161c-0.342-2.161-2.233-3.457-4.375-3.457c-3.367,0-5.33,2.755-5.33,6.05
		s1.962,6.05,5.33,6.05c2.503,0,4.447-2.233,4.591-4.627h0.792c-0.288,3.061-2.557,5.312-5.384,5.312
		c-3.853,0-6.122-2.971-6.122-6.734c0-3.763,2.269-6.734,6.122-6.734c4.555,0,5.149,3.961,5.167,4.142H111.553z"/>
	<path fill="#636466" d="M116.428,158.01v-0.684h9.849v0.684h-4.537v12.172h-0.792V158.01H116.428z"/>
	<path fill="#636466" d="M130.756,157.326h0.792v12.856h-0.792V157.326z"/>
	<path fill="#636466" d="M142.963,170.488c-3.854,0-6.123-2.971-6.123-6.734c0-3.763,2.269-6.734,6.123-6.734
		c3.835,0,6.104,2.971,6.104,6.734C149.066,167.517,146.797,170.488,142.963,170.488z M142.963,169.804
		c3.349,0,5.312-2.755,5.312-6.05s-1.963-6.05-5.312-6.05c-3.368,0-5.33,2.755-5.33,6.05S139.595,169.804,142.963,169.804z"/>
	<path fill="#636466" d="M154.354,157.326h0.99l8.121,11.793h0.036v-11.793h0.792v12.856h-0.937l-8.175-11.884h-0.035v11.884h-0.793
		V157.326z"/>
	<path fill="#636466" d="M178.762,157.326h4.213c4.592,0,5.941,3.151,5.941,6.41c0,3.637-1.854,6.446-5.978,6.446h-4.177V157.326z
		 M179.554,169.498h3.457c2.395,0,5.113-1.314,5.113-5.762c0-5.258-3.367-5.726-5.275-5.726h-3.295V169.498z"/>
	<path fill="#636466" d="M203.1,169.498v0.684h-8.732v-12.856h8.643v0.684h-7.851v5.15h7.382v0.684h-7.382v5.654H203.1z"/>
	<path fill="#636466" d="M216.438,160.999c-0.09-2.197-1.746-3.295-4.123-3.295c-1.458,0-3.528,0.612-3.528,2.737
		c0,2.07,2.196,2.413,4.375,2.863c2.196,0.45,4.394,1.008,4.394,3.565c0,2.665-2.558,3.619-4.52,3.619
		c-3.007,0-5.456-1.243-5.42-4.555h0.792c-0.162,2.809,2.089,3.871,4.628,3.871c1.548,0,3.727-0.702,3.727-2.935
		c0-2.179-2.196-2.557-4.393-3.007c-2.179-0.45-4.376-0.972-4.376-3.421c0-2.467,2.287-3.421,4.321-3.421
		c2.683,0,4.79,1.152,4.916,3.979H216.438z"/>
	<path fill="#636466" d="M222.988,157.326h0.792v12.856h-0.792V157.326z"/>
	<path fill="#636466" d="M240.811,163.88v6.302h-0.685v-2.737h-0.036c-0.63,1.873-2.593,3.043-4.861,3.043
		c-3.889,0-6.05-2.971-6.05-6.662c0-3.637,2.197-6.806,6.068-6.806c2.646,0,4.897,1.603,5.348,4.286h-0.757
		c-0.594-2.215-2.232-3.601-4.573-3.601c-3.475,0-5.294,2.917-5.294,6.122c0,3.277,1.765,5.978,5.294,5.978
		c3.061,0,4.987-2.089,4.861-5.24h-4.735v-0.684H240.811z"/>
	<path fill="#636466" d="M246.586,157.326h0.99l8.12,11.793h0.036v-11.793h0.792v12.856h-0.937l-8.174-11.884h-0.036v11.884h-0.792
		V157.326z"/>
	<path fill="#636466" d="M37.508,181.326h4.213c4.591,0,5.942,3.151,5.942,6.41c0,3.637-1.855,6.446-5.978,6.446h-4.177V181.326z
		 M38.3,193.498h3.457c2.395,0,5.113-1.314,5.113-5.762c0-5.258-3.367-5.726-5.275-5.726H38.3V193.498z"/>
	<path fill="#636466" d="M61.846,193.498v0.684h-8.732v-12.856h8.643v0.684h-7.85v5.15h7.382v0.684h-7.382v5.654H61.846z"/>
	<path fill="#636466" d="M75.184,184.999c-0.09-2.197-1.747-3.295-4.123-3.295c-1.458,0-3.529,0.612-3.529,2.737
		c0,2.07,2.197,2.413,4.375,2.863c2.196,0.45,4.393,1.008,4.393,3.565c0,2.665-2.557,3.619-4.52,3.619
		c-3.007,0-5.456-1.243-5.419-4.555h0.792c-0.162,2.809,2.088,3.871,4.627,3.871c1.549,0,3.728-0.702,3.728-2.935
		c0-2.179-2.197-2.557-4.394-3.007c-2.179-0.45-4.375-0.972-4.375-3.421c0-2.467,2.287-3.421,4.321-3.421
		c2.683,0,4.789,1.152,4.915,3.979H75.184z"/>
	<path fill="#636466" d="M81.734,181.326h0.792v12.856h-0.792V181.326z"/>
	<path fill="#636466" d="M99.557,187.88v6.302h-0.685v-2.737h-0.036c-0.63,1.873-2.593,3.043-4.862,3.043
		c-3.889,0-6.05-2.971-6.05-6.662c0-3.637,2.197-6.806,6.068-6.806c2.647,0,4.897,1.603,5.348,4.286h-0.756
		c-0.594-2.215-2.232-3.601-4.573-3.601c-3.475,0-5.293,2.917-5.293,6.122c0,3.277,1.765,5.978,5.293,5.978
		c3.061,0,4.987-2.089,4.861-5.24h-4.735v-0.684H99.557z"/>
	<path fill="#636466" d="M105.332,181.326h0.99l8.121,11.793h0.036v-11.793h0.792v12.856h-0.936l-8.175-11.884h-0.036v11.884h-0.792
		V181.326z"/>
	<path fill="#636466" d="M129.739,181.326h5.366c2.25,0,4.069,0.829,4.069,3.313c0,1.729-1.044,3.007-2.755,3.295v0.036
		c1.908,0.216,2.376,1.422,2.502,2.755c0.126,1.333-0.09,2.773,0.432,3.457h-0.882c-0.486-0.882-0.198-2.359-0.342-3.601
		c-0.162-1.242-0.774-2.25-3.025-2.25h-4.573v5.852h-0.792V181.326z M135.105,187.646c1.873,0,3.277-0.882,3.277-2.953
		c0-1.945-1.548-2.683-3.277-2.683h-4.573v5.636H135.105z"/>
	<path fill="#636466" d="M153.412,193.498v0.684h-8.732v-12.856h8.643v0.684h-7.85v5.15h7.382v0.684h-7.382v5.654H153.412z"/>
	<path fill="#636466" d="M166.75,184.999c-0.09-2.197-1.746-3.295-4.123-3.295c-1.458,0-3.529,0.612-3.529,2.737
		c0,2.07,2.197,2.413,4.376,2.863c2.196,0.45,4.393,1.008,4.393,3.565c0,2.665-2.557,3.619-4.52,3.619
		c-3.007,0-5.455-1.243-5.419-4.555h0.792c-0.162,2.809,2.089,3.871,4.627,3.871c1.549,0,3.728-0.702,3.728-2.935
		c0-2.179-2.196-2.557-4.394-3.007c-2.179-0.45-4.375-0.972-4.375-3.421c0-2.467,2.287-3.421,4.321-3.421
		c2.683,0,4.789,1.152,4.915,3.979H166.75z"/>
	<path fill="#636466" d="M182.032,193.498v0.684h-8.732v-12.856h8.643v0.684h-7.851v5.15h7.382v0.684h-7.382v5.654H182.032z"/>
	<path fill="#636466" d="M191.661,181.326l5.077,12.856h-0.846l-1.621-4.123h-6.157l-1.639,4.123h-0.847l5.168-12.856H191.661z
		 M194.019,189.374l-2.755-7.274h-0.036l-2.862,7.274H194.019z"/>
	<path fill="#636466" d="M201.254,181.326h5.365c2.251,0,4.069,0.829,4.069,3.313c0,1.729-1.045,3.007-2.755,3.295v0.036
		c1.908,0.216,2.377,1.422,2.503,2.755s-0.091,2.773,0.432,3.457h-0.882c-0.486-0.882-0.198-2.359-0.343-3.601
		c-0.161-1.242-0.773-2.25-3.024-2.25h-4.573v5.852h-0.792V181.326z M206.619,187.646c1.872,0,3.277-0.882,3.277-2.953
		c0-1.945-1.549-2.683-3.277-2.683h-4.573v5.636H206.619z"/>
	<path fill="#636466" d="M226.204,185.161c-0.343-2.161-2.232-3.457-4.376-3.457c-3.366,0-5.329,2.755-5.329,6.05
		s1.963,6.05,5.329,6.05c2.503,0,4.448-2.233,4.592-4.627h0.792c-0.288,3.061-2.557,5.312-5.384,5.312
		c-3.853,0-6.121-2.971-6.121-6.734c0-3.763,2.269-6.734,6.121-6.734c4.556,0,5.15,3.961,5.168,4.142H226.204z"/>
	<path fill="#636466" d="M233.256,187.844v6.338h-0.792v-12.856h0.792v5.834h8.21v-5.834h0.793v12.856h-0.793v-6.338H233.256z"/>
</g>
<g>
</g>
<g>
</g>
<g>
</g>
<g>
</g>
<g>
</g>
<g>
</g>
</svg>
